<svg width="353" height="515" viewBox="0 0 353 515" fill="none" xmlns="http://www.w3.org/2000/svg">
<rect width="353" height="515" rx="28" fill="black"/>
<path d="M0 65H224V396H0V65Z" fill="#3947EE"/>
<path d="M53 34H207V359H53V34Z" fill="#3947EE"/>
<path d="M155 86H309V440H155V86Z" fill="#3947EE"/>
<path d="M18 86H353V416H18V86Z" fill="#3947EE"/>
<path d="M51 185H207V515H51V185Z" fill="#3947EE"/>
<path d="M60.604 485.51V493.112H59.12V482.78H60.73L64.328 489.094L67.912 482.78H69.536V493.112H68.052V485.51L64.972 490.956H63.67L60.604 485.51ZM76.1681 491.922C76.8867 491.922 77.5214 491.759 78.0721 491.432C78.6321 491.096 79.0614 490.629 79.3601 490.032C79.6681 489.425 79.8221 488.73 79.8221 487.946C79.8221 487.162 79.6681 486.471 79.3601 485.874C79.0614 485.267 78.6321 484.801 78.0721 484.474C77.5214 484.138 76.8867 483.97 76.1681 483.97C75.4494 483.97 74.8147 484.138 74.2641 484.474C73.7134 484.801 73.2841 485.267 72.9761 485.874C72.6774 486.471 72.5281 487.162 72.5281 487.946C72.5281 488.73 72.6774 489.425 72.9761 490.032C73.2841 490.629 73.7134 491.096 74.2641 491.432C74.8147 491.759 75.4494 491.922 76.1681 491.922ZM76.1681 482.668C77.1667 482.668 78.0534 482.892 78.8281 483.34C79.6121 483.788 80.2234 484.413 80.6621 485.216C81.1007 486.019 81.3201 486.929 81.3201 487.946C81.3201 488.963 81.1007 489.873 80.6621 490.676C80.2234 491.479 79.6121 492.104 78.8281 492.552C78.0534 493 77.1667 493.224 76.1681 493.224C75.1787 493.224 74.2921 493 73.5081 492.552C72.7334 492.104 72.1267 491.479 71.6881 490.676C71.2494 489.873 71.0301 488.963 71.0301 487.946C71.0301 486.929 71.2494 486.019 71.6881 485.216C72.1267 484.413 72.7334 483.788 73.5081 483.34C74.2921 482.892 75.1787 482.668 76.1681 482.668ZM86.9789 493.112H85.2429L81.4209 482.78H83.0029L86.0969 491.11L88.9949 482.78H90.5769L86.9789 493.112ZM93.3736 482.78V493.112H91.8896V482.78H93.3736ZM101.726 484.082H96.5317V487.148H100.998V488.436H96.5317V491.81H101.726V493.112H95.0477V482.78H101.726V484.082ZM107.549 491.81H112.225V493.112H106.065V482.78H107.549V491.81ZM117.699 491.922C118.418 491.922 119.052 491.759 119.603 491.432C120.163 491.096 120.592 490.629 120.891 490.032C121.199 489.425 121.353 488.73 121.353 487.946C121.353 487.162 121.199 486.471 120.891 485.874C120.592 485.267 120.163 484.801 119.603 484.474C119.052 484.138 118.418 483.97 117.699 483.97C116.98 483.97 116.346 484.138 115.795 484.474C115.244 484.801 114.815 485.267 114.507 485.874C114.208 486.471 114.059 487.162 114.059 487.946C114.059 488.73 114.208 489.425 114.507 490.032C114.815 490.629 115.244 491.096 115.795 491.432C116.346 491.759 116.98 491.922 117.699 491.922ZM117.699 482.668C118.698 482.668 119.584 482.892 120.359 483.34C121.143 483.788 121.754 484.413 122.193 485.216C122.632 486.019 122.851 486.929 122.851 487.946C122.851 488.963 122.632 489.873 122.193 490.676C121.754 491.479 121.143 492.104 120.359 492.552C119.584 493 118.698 493.224 117.699 493.224C116.71 493.224 115.823 493 115.039 492.552C114.264 492.104 113.658 491.479 113.219 490.676C112.78 489.873 112.561 488.963 112.561 487.946C112.561 486.929 112.78 486.019 113.219 485.216C113.658 484.413 114.264 483.788 115.039 483.34C115.823 482.892 116.71 482.668 117.699 482.668ZM133.771 488.59C133.771 489.542 133.566 490.363 133.155 491.054C132.754 491.745 132.189 492.277 131.461 492.65C130.733 493.014 129.889 493.205 128.927 493.224C127.938 493.224 127.051 493 126.267 492.552C125.493 492.104 124.886 491.479 124.447 490.676C124.009 489.873 123.789 488.963 123.789 487.946C123.789 486.929 124.009 486.023 124.447 485.23C124.886 484.427 125.493 483.802 126.267 483.354C127.051 482.906 127.938 482.682 128.927 482.682C129.982 482.682 130.883 482.925 131.629 483.41C132.376 483.895 132.931 484.483 133.295 485.174L132.021 485.832C131.76 485.319 131.363 484.885 130.831 484.53C130.309 484.166 129.674 483.984 128.927 483.984C128.209 483.984 127.569 484.152 127.009 484.488C126.459 484.815 126.029 485.277 125.721 485.874C125.423 486.471 125.273 487.162 125.273 487.946C125.273 488.73 125.423 489.425 125.721 490.032C126.029 490.629 126.459 491.096 127.009 491.432C127.569 491.759 128.209 491.922 128.927 491.922C129.571 491.903 130.145 491.787 130.649 491.572C131.163 491.348 131.569 491.017 131.867 490.578C132.166 490.13 132.315 489.579 132.315 488.926H129.095V487.694H133.785L133.771 488.59ZM136.153 491.586C136.405 491.586 136.61 491.67 136.769 491.838C136.927 491.997 137.007 492.202 137.007 492.454C137.007 492.715 136.927 492.925 136.769 493.084C136.61 493.252 136.405 493.336 136.153 493.336C135.891 493.336 135.677 493.252 135.509 493.084C135.35 492.925 135.271 492.715 135.271 492.454C135.271 492.202 135.35 491.997 135.509 491.838C135.677 491.67 135.891 491.586 136.153 491.586Z" fill="black"/>
</svg>
