<svg width="353" height="515" viewBox="0 0 353 515" fill="none" xmlns="http://www.w3.org/2000/svg">
<g clip-path="url(#clip0_70_1138)">
<rect width="353" height="515" rx="28" fill="#3947EE"/>
<g clip-path="url(#clip1_70_1138)">
<path d="M0.000164032 530H266.589H304.279H353V454.764C353 445.455 348.678 436.672 341.301 430.993L266.589 373.471H323C339.569 373.471 353 360.04 353 343.471V216.943V183.99V168.199V129.152C353 111.127 337.218 97.172 319.329 99.3779L156.5 119.456L329.973 78.0027C343.475 74.7761 353 62.7068 353 48.8242V0H0L0.000164032 119.456L0.000116396 139.112C7.59409e-05 155.805 13.6267 169.288 30.319 169.11L116 168.199L22.1846 193.514C9.09417 197.046 5.84705e-06 208.919 1.42635e-05 222.478L0.000164032 463.75V530Z" fill="#CCFF00"/>
</g>
<path d="M221.889 128.599L222.81 136.145L221.337 136.325L220.085 126.069L221.683 125.874L226.02 131.705L228.812 125.004L230.424 124.807L231.677 135.063L230.203 135.242L229.282 127.697L226.885 133.476L225.592 133.633L221.889 128.599ZM238.115 133.078C238.829 132.991 239.439 132.751 239.946 132.36C240.461 131.959 240.831 131.444 241.055 130.815C241.287 130.175 241.356 129.466 241.261 128.688C241.166 127.91 240.929 127.243 240.551 126.687C240.181 126.121 239.698 125.71 239.103 125.454C238.515 125.187 237.865 125.097 237.152 125.184C236.438 125.271 235.829 125.515 235.323 125.915C234.816 126.306 234.446 126.822 234.214 127.461C233.99 128.09 233.925 128.794 234.02 129.572C234.115 130.35 234.348 131.022 234.718 131.588C235.096 132.144 235.579 132.555 236.166 132.822C236.752 133.079 237.402 133.165 238.115 133.078ZM236.994 123.892C237.985 123.771 238.892 123.886 239.716 124.236C240.548 124.586 241.231 125.133 241.764 125.876C242.296 126.62 242.624 127.497 242.748 128.506C242.871 129.516 242.763 130.446 242.425 131.296C242.087 132.146 241.556 132.841 240.832 133.381C240.118 133.919 239.265 134.249 238.273 134.37C237.291 134.49 236.384 134.375 235.551 134.025C234.728 133.675 234.05 133.127 233.517 132.384C232.985 131.64 232.657 130.763 232.533 129.754C232.41 128.744 232.518 127.814 232.856 126.964C233.194 126.114 233.72 125.42 234.435 124.881C235.159 124.342 236.012 124.012 236.994 123.892ZM248.991 132.949L247.268 133.159L242.222 123.366L243.792 123.175L247.873 131.068L249.74 122.448L251.31 122.257L248.991 132.949ZM254.086 121.918L255.338 132.174L253.865 132.353L252.613 122.098L254.086 121.918ZM262.535 122.198L257.379 122.827L257.75 125.871L262.183 125.329L262.34 126.608L257.907 127.149L258.315 130.498L263.471 129.869L263.629 131.161L257 131.971L255.748 121.715L262.377 120.905L262.535 122.198ZM269.251 129.163L273.893 128.596L274.05 129.889L267.936 130.635L266.684 120.38L268.157 120.2L269.251 129.163ZM279.34 128.044C280.053 127.957 280.664 127.718 281.171 127.327C281.686 126.926 282.055 126.41 282.28 125.781C282.512 125.142 282.58 124.433 282.485 123.655C282.39 122.876 282.154 122.209 281.776 121.654C281.406 121.088 280.923 120.677 280.327 120.42C279.74 120.153 279.09 120.064 278.376 120.151C277.663 120.238 277.053 120.481 276.547 120.882C276.04 121.273 275.671 121.788 275.439 122.428C275.215 123.057 275.15 123.76 275.245 124.539C275.34 125.317 275.573 125.989 275.943 126.555C276.321 127.11 276.803 127.522 277.391 127.788C277.977 128.046 278.627 128.131 279.34 128.044ZM278.219 118.858C279.21 118.737 280.117 118.852 280.94 119.203C281.773 119.553 282.455 120.099 282.988 120.843C283.521 121.586 283.849 122.463 283.972 123.473C284.096 124.483 283.988 125.413 283.65 126.263C283.312 127.113 282.781 127.807 282.057 128.347C281.342 128.886 280.489 129.215 279.498 129.336C278.516 129.456 277.609 129.342 276.776 128.992C275.953 128.641 275.275 128.094 274.742 127.35C274.209 126.607 273.881 125.73 273.758 124.72C273.635 123.71 273.742 122.78 274.08 121.93C274.419 121.081 274.945 120.386 275.66 119.848C276.383 119.308 277.236 118.978 278.219 118.858ZM294.89 122.789C295.006 123.734 294.901 124.574 294.577 125.309C294.263 126.043 293.767 126.64 293.089 127.099C292.411 127.548 291.596 127.841 290.644 127.976C289.662 128.096 288.754 127.981 287.922 127.631C287.098 127.28 286.42 126.733 285.888 125.989C285.355 125.246 285.027 124.369 284.904 123.359C284.78 122.349 284.888 121.424 285.228 120.584C285.566 119.734 286.092 119.039 286.807 118.501C287.531 117.961 288.384 117.631 289.366 117.511C290.413 117.383 291.336 117.515 292.136 117.906C292.936 118.298 293.559 118.814 294.004 119.456L292.819 120.263C292.497 119.785 292.051 119.403 291.48 119.115C290.917 118.817 290.265 118.713 289.524 118.804C288.81 118.891 288.196 119.135 287.681 119.536C287.174 119.927 286.804 120.438 286.57 121.068C286.346 121.697 286.282 122.401 286.377 123.179C286.472 123.958 286.704 124.63 287.074 125.196C287.452 125.751 287.935 126.162 288.523 126.429C289.118 126.686 289.772 126.77 290.486 126.683C291.123 126.587 291.678 126.401 292.153 126.127C292.635 125.843 292.998 125.464 293.241 124.993C293.483 124.512 293.565 123.947 293.486 123.299L290.289 123.689L290.14 122.466L294.796 121.898L294.89 122.789ZM297.617 125.474C297.867 125.443 298.081 125.502 298.259 125.649C298.436 125.788 298.539 125.982 298.57 126.232C298.602 126.491 298.548 126.71 298.41 126.886C298.273 127.072 298.079 127.181 297.829 127.211C297.57 127.243 297.347 127.185 297.159 127.039C296.983 126.901 296.878 126.702 296.847 126.442C296.816 126.192 296.87 125.979 297.008 125.802C297.155 125.615 297.358 125.506 297.617 125.474Z" fill="#3947EE"/>
</g>
<defs>
<clipPath id="clip0_70_1138">
<rect width="353" height="515" rx="28" fill="white"/>
</clipPath>
<clipPath id="clip1_70_1138">
<rect width="353" height="530" fill="white" transform="matrix(1 0 0 -1 0 530)"/>
</clipPath>
</defs>
</svg>
