<svg width="353" height="515" viewBox="0 0 353 515" fill="none" xmlns="http://www.w3.org/2000/svg">
<g clip-path="url(#clip0_70_1196)">
<rect width="353" height="515" rx="28" fill="#FEC3D9"/>
<path d="M0 -14.5H353V367.654L71 397V367.654H0V-14.5Z" fill="#F3493E"/>
<path d="M0 397H353V426.729L100.5 456V426.729H0V397Z" fill="#F3493E"/>
<path d="M0 455H353V467.976L143.5 493V467.976H0V455Z" fill="#F3493E"/>
<path d="M0 493H353V496.143L188 515V496.143H0V493Z" fill="#F3493E"/>
<path d="M242.604 409.51V417.112H241.12V406.78H242.73L246.328 413.094L249.912 406.78H251.536V417.112H250.052V409.51L246.972 414.956H245.67L242.604 409.51ZM258.168 415.922C258.887 415.922 259.521 415.759 260.072 415.432C260.632 415.096 261.061 414.629 261.36 414.032C261.668 413.425 261.822 412.73 261.822 411.946C261.822 411.162 261.668 410.471 261.36 409.874C261.061 409.267 260.632 408.801 260.072 408.474C259.521 408.138 258.887 407.97 258.168 407.97C257.449 407.97 256.815 408.138 256.264 408.474C255.713 408.801 255.284 409.267 254.976 409.874C254.677 410.471 254.528 411.162 254.528 411.946C254.528 412.73 254.677 413.425 254.976 414.032C255.284 414.629 255.713 415.096 256.264 415.432C256.815 415.759 257.449 415.922 258.168 415.922ZM258.168 406.668C259.167 406.668 260.053 406.892 260.828 407.34C261.612 407.788 262.223 408.413 262.662 409.216C263.101 410.019 263.32 410.929 263.32 411.946C263.32 412.963 263.101 413.873 262.662 414.676C262.223 415.479 261.612 416.104 260.828 416.552C260.053 417 259.167 417.224 258.168 417.224C257.179 417.224 256.292 417 255.508 416.552C254.733 416.104 254.127 415.479 253.688 414.676C253.249 413.873 253.03 412.963 253.03 411.946C253.03 410.929 253.249 410.019 253.688 409.216C254.127 408.413 254.733 407.788 255.508 407.34C256.292 406.892 257.179 406.668 258.168 406.668ZM268.979 417.112H267.243L263.421 406.78H265.003L268.097 415.11L270.995 406.78H272.577L268.979 417.112ZM275.374 406.78V417.112H273.89V406.78H275.374ZM283.726 408.082H278.532V411.148H282.998V412.436H278.532V415.81H283.726V417.112H277.048V406.78H283.726V408.082ZM289.549 415.81H294.225V417.112H288.065V406.78H289.549V415.81ZM299.699 415.922C300.418 415.922 301.052 415.759 301.603 415.432C302.163 415.096 302.592 414.629 302.891 414.032C303.199 413.425 303.353 412.73 303.353 411.946C303.353 411.162 303.199 410.471 302.891 409.874C302.592 409.267 302.163 408.801 301.603 408.474C301.052 408.138 300.418 407.97 299.699 407.97C298.98 407.97 298.346 408.138 297.795 408.474C297.244 408.801 296.815 409.267 296.507 409.874C296.208 410.471 296.059 411.162 296.059 411.946C296.059 412.73 296.208 413.425 296.507 414.032C296.815 414.629 297.244 415.096 297.795 415.432C298.346 415.759 298.98 415.922 299.699 415.922ZM299.699 406.668C300.698 406.668 301.584 406.892 302.359 407.34C303.143 407.788 303.754 408.413 304.193 409.216C304.632 410.019 304.851 410.929 304.851 411.946C304.851 412.963 304.632 413.873 304.193 414.676C303.754 415.479 303.143 416.104 302.359 416.552C301.584 417 300.698 417.224 299.699 417.224C298.71 417.224 297.823 417 297.039 416.552C296.264 416.104 295.658 415.479 295.219 414.676C294.78 413.873 294.561 412.963 294.561 411.946C294.561 410.929 294.78 410.019 295.219 409.216C295.658 408.413 296.264 407.788 297.039 407.34C297.823 406.892 298.71 406.668 299.699 406.668ZM315.771 412.59C315.771 413.542 315.566 414.363 315.155 415.054C314.754 415.745 314.189 416.277 313.461 416.65C312.733 417.014 311.889 417.205 310.927 417.224C309.938 417.224 309.051 417 308.267 416.552C307.493 416.104 306.886 415.479 306.447 414.676C306.009 413.873 305.789 412.963 305.789 411.946C305.789 410.929 306.009 410.023 306.447 409.23C306.886 408.427 307.493 407.802 308.267 407.354C309.051 406.906 309.938 406.682 310.927 406.682C311.982 406.682 312.883 406.925 313.629 407.41C314.376 407.895 314.931 408.483 315.295 409.174L314.021 409.832C313.76 409.319 313.363 408.885 312.831 408.53C312.309 408.166 311.674 407.984 310.927 407.984C310.209 407.984 309.569 408.152 309.009 408.488C308.459 408.815 308.029 409.277 307.721 409.874C307.423 410.471 307.273 411.162 307.273 411.946C307.273 412.73 307.423 413.425 307.721 414.032C308.029 414.629 308.459 415.096 309.009 415.432C309.569 415.759 310.209 415.922 310.927 415.922C311.571 415.903 312.145 415.787 312.649 415.572C313.163 415.348 313.569 415.017 313.867 414.578C314.166 414.13 314.315 413.579 314.315 412.926H311.095V411.694H315.785L315.771 412.59ZM318.153 415.586C318.405 415.586 318.61 415.67 318.769 415.838C318.927 415.997 319.007 416.202 319.007 416.454C319.007 416.715 318.927 416.925 318.769 417.084C318.61 417.252 318.405 417.336 318.153 417.336C317.891 417.336 317.677 417.252 317.509 417.084C317.35 416.925 317.271 416.715 317.271 416.454C317.271 416.202 317.35 415.997 317.509 415.838C317.677 415.67 317.891 415.586 318.153 415.586Z" fill="#FEC3D9"/>
</g>
<defs>
<clipPath id="clip0_70_1196">
<rect width="353" height="515" rx="28" fill="white"/>
</clipPath>
</defs>
</svg>
