<svg width="353" height="515" viewBox="0 0 353 515" fill="none" xmlns="http://www.w3.org/2000/svg">
<g clip-path="url(#clip0_70_1085)">
<rect width="353" height="515" rx="28" transform="matrix(-1 0 0 1 353 0)" fill="#F3493E"/>
<path d="M353 28C353 12.536 340.464 0 325 0V377C340.464 377 353 364.464 353 349V28Z" fill="#FEC3D9"/>
<path d="M325 67C325 29.9969 295.003 0 258 0V377C295.003 377 325 347.003 325 310V67Z" fill="#FEC3D9"/>
<path d="M353 377H325V421C340.464 421 353 408.464 353 393V377Z" fill="#FEC3D9"/>
<path d="M353 421H325V515C340.464 515 353 502.464 353 487V421Z" fill="#FEC3D9"/>
<path d="M325 377H258V421H281C305.301 421 325 401.301 325 377Z" fill="#FEC3D9"/>
<path d="M325 421H258V515C295.003 515 325 485.003 325 448V421Z" fill="#FEC3D9"/>
<path d="M258 421H0V515H164C215.915 515 258 472.915 258 421Z" fill="#FEC3D9"/>
<path d="M258 377H0V421H214C238.301 421 258 401.301 258 377Z" fill="#FEC3D9"/>
<path d="M258 129C258 57.7553 200.245 0 129 0C57.7553 0 0 57.7553 0 129V248C0 319.245 57.7553 377 129 377C200.245 377 258 319.245 258 248V129Z" fill="#FEC3D9"/>
<path d="M315.51 153.396L323.112 153.396L323.112 154.88L312.78 154.88L312.78 153.27L319.094 149.672L312.78 146.088L312.78 144.464L323.112 144.464L323.112 145.948L315.51 145.948L320.956 149.028L320.956 150.33L315.51 153.396ZM321.922 137.832C321.922 137.113 321.759 136.479 321.432 135.928C321.096 135.368 320.629 134.939 320.032 134.64C319.425 134.332 318.73 134.178 317.946 134.178C317.162 134.178 316.471 134.332 315.874 134.64C315.267 134.939 314.801 135.368 314.474 135.928C314.138 136.479 313.97 137.113 313.97 137.832C313.97 138.551 314.138 139.185 314.474 139.736C314.801 140.287 315.267 140.716 315.874 141.024C316.471 141.323 317.162 141.472 317.946 141.472C318.73 141.472 319.425 141.323 320.032 141.024C320.629 140.716 321.096 140.287 321.432 139.736C321.759 139.185 321.922 138.551 321.922 137.832ZM312.668 137.832C312.668 136.833 312.892 135.947 313.34 135.172C313.788 134.388 314.413 133.777 315.216 133.338C316.019 132.899 316.929 132.68 317.946 132.68C318.963 132.68 319.873 132.899 320.676 133.338C321.479 133.777 322.104 134.388 322.552 135.172C323 135.947 323.224 136.833 323.224 137.832C323.224 138.821 323 139.708 322.552 140.492C322.104 141.267 321.479 141.873 320.676 142.312C319.873 142.751 318.963 142.97 317.946 142.97C316.929 142.97 316.019 142.751 315.216 142.312C314.413 141.873 313.788 141.267 313.34 140.492C312.892 139.708 312.668 138.821 312.668 137.832ZM323.112 127.021L323.112 128.757L312.78 132.579L312.78 130.997L321.11 127.903L312.78 125.005L312.78 123.423L323.112 127.021ZM312.78 120.626L323.112 120.626L323.112 122.11L312.78 122.11L312.78 120.626ZM314.082 112.274L314.082 117.468L317.148 117.468L317.148 113.002L318.436 113.002L318.436 117.468L321.81 117.468L321.81 112.274L323.112 112.274L323.112 118.952L312.78 118.952L312.78 112.274L314.082 112.274ZM321.81 106.451L321.81 101.775L323.112 101.775L323.112 107.935L312.78 107.935L312.78 106.451L321.81 106.451ZM321.922 96.3012C321.922 95.5825 321.759 94.9478 321.432 94.3972C321.096 93.8372 320.629 93.4078 320.032 93.1092C319.425 92.8012 318.73 92.6472 317.946 92.6472C317.162 92.6472 316.471 92.8012 315.874 93.1092C315.267 93.4078 314.801 93.8372 314.474 94.3972C314.138 94.9478 313.97 95.5825 313.97 96.3012C313.97 97.0198 314.138 97.6545 314.474 98.2052C314.801 98.7558 315.267 99.1852 315.874 99.4932C316.471 99.7918 317.162 99.9412 317.946 99.9412C318.73 99.9412 319.425 99.7918 320.032 99.4932C320.629 99.1852 321.096 98.7558 321.432 98.2052C321.759 97.6545 321.922 97.0198 321.922 96.3012ZM312.668 96.3012C312.668 95.3025 312.892 94.4158 313.34 93.6412C313.788 92.8572 314.413 92.2458 315.216 91.8072C316.019 91.3685 316.929 91.1492 317.946 91.1492C318.963 91.1492 319.873 91.3685 320.676 91.8072C321.479 92.2458 322.104 92.8572 322.552 93.6412C323 94.4158 323.224 95.3025 323.224 96.3012C323.224 97.2905 323 98.1772 322.552 98.9612C322.104 99.7358 321.479 100.342 320.676 100.781C319.873 101.22 318.963 101.439 317.946 101.439C316.929 101.439 316.019 101.22 315.216 100.781C314.413 100.342 313.788 99.7358 313.34 98.9612C312.892 98.1772 312.668 97.2905 312.668 96.3012ZM318.59 80.2287C319.542 80.2287 320.363 80.4341 321.054 80.8447C321.745 81.2461 322.277 81.8107 322.65 82.5387C323.014 83.2667 323.205 84.1114 323.224 85.0727C323.224 86.0621 323 86.9487 322.552 87.7327C322.104 88.5074 321.479 89.1141 320.676 89.5527C319.873 89.9914 318.963 90.2107 317.946 90.2107C316.929 90.2107 316.023 89.9914 315.23 89.5527C314.427 89.1141 313.802 88.5074 313.354 87.7327C312.906 86.9487 312.682 86.0621 312.682 85.0727C312.682 84.0181 312.925 83.1174 313.41 82.3707C313.895 81.6241 314.483 81.0687 315.174 80.7047L315.832 81.9787C315.319 82.2401 314.885 82.6367 314.53 83.1687C314.166 83.6914 313.984 84.3261 313.984 85.0727C313.984 85.7914 314.152 86.4307 314.488 86.9907C314.815 87.5414 315.277 87.9707 315.874 88.2787C316.471 88.5774 317.162 88.7267 317.946 88.7267C318.73 88.7267 319.425 88.5774 320.032 88.2787C320.629 87.9707 321.096 87.5414 321.432 86.9907C321.759 86.4307 321.922 85.7914 321.922 85.0727C321.903 84.4287 321.787 83.8547 321.572 83.3507C321.348 82.8374 321.017 82.4314 320.578 82.1327C320.13 81.8341 319.579 81.6847 318.926 81.6847L318.926 84.9047L317.694 84.9047L317.694 80.2147L318.59 80.2287ZM321.586 77.8474C321.586 77.5954 321.67 77.3901 321.838 77.2314C321.997 77.0727 322.202 76.9934 322.454 76.9934C322.715 76.9934 322.925 77.0727 323.084 77.2314C323.252 77.3901 323.336 77.5954 323.336 77.8474C323.336 78.1087 323.252 78.3234 323.084 78.4914C322.925 78.6501 322.715 78.7294 322.454 78.7294C322.202 78.7294 321.997 78.6501 321.838 78.4914C321.67 78.3234 321.586 78.1087 321.586 77.8474Z" fill="#F3493E"/>
</g>
<defs>
<clipPath id="clip0_70_1085">
<rect width="353" height="515" rx="28" transform="matrix(-1 0 0 1 353 0)" fill="white"/>
</clipPath>
</defs>
</svg>
