<svg width="353" height="515" viewBox="0 0 353 515" fill="none" xmlns="http://www.w3.org/2000/svg">
<g clip-path="url(#clip0_70_1149)">
<rect width="353" height="515" rx="28" fill="#E5E6E7"/>
<path d="M88.25 0C39.5109 0 0 57.6434 0 128.75C0 257.5 39.5109 257.5 88.25 257.5C39.5109 257.5 0 257.5 0 386.25C0 457.358 39.5109 515 88.25 515C176.5 515 176.5 457.358 176.5 386.25C176.5 457.358 176.5 515 264.75 515C313.49 515 353 457.358 353 386.25C353 257.5 313.49 257.5 264.75 257.5C313.49 257.5 353 257.5 353 128.75C353 57.6434 313.49 0 264.75 0C176.5 0 176.5 57.6434 176.5 128.75C176.5 57.6434 176.5 0 88.25 0Z" fill="#4C4D55"/>
<path d="M-5 40.9904L-57 41C-57 41.0032 -57 41.0064 -57 41.0096C-57.0001 98.8381 -58.2009 140.364 -60.3139 170.131C-62.4603 200.37 -65.4538 216.784 -68.2915 225.407C-68.3212 225.497 -68.3506 225.586 -68.3798 225.673C-70.417 225.641 -72.0365 225.707 -73.055 225.748C-73.4781 225.765 -73.7975 225.778 -74 225.778V251.778V277.778C-72.784 277.778 -72.293 277.822 -71.434 277.9C-71.1923 277.921 -70.9216 277.946 -70.5973 277.972C-70.0452 279.297 -69.3668 281.167 -68.6196 283.746C-62.0483 306.429 -57.0436 358.425 -57 475C-57 475.003 -57 475.006 -57 475.01L-5 475C-5 474.997 -5 474.994 -5 474.99C-4.99973 358.083 -0.0115204 305.652 6.58771 282.63C7.39598 279.81 8.12872 277.806 8.71518 276.42C9.00092 276.395 9.24798 276.373 9.47046 276.352C10.4003 276.267 10.9007 276.222 12 276.222V250.222V224.222C11.7703 224.222 11.4279 224.209 10.9856 224.193C9.92799 224.155 8.29864 224.096 6.26881 224.136C3.47265 215.666 0.49958 199.477 -1.64381 169.57C-3.76405 139.986 -4.97857 98.6509 -5 41C-5 40.9968 -5 40.9936 -5 40.9904Z" fill="#E5E6E7" stroke="#E5E6E7" stroke-width="52"/>
<path d="M99 40.9904L47 41C47 41.0032 47 41.0064 47 41.0096C46.9999 98.8381 45.7991 140.364 43.6861 170.131C41.5397 200.37 38.5462 216.784 35.7085 225.407C35.6788 225.497 35.6494 225.586 35.6202 225.673C33.583 225.641 31.9635 225.707 30.945 225.748C30.5219 225.765 30.2025 225.778 30 225.778V251.778V277.778C31.216 277.778 31.707 277.822 32.566 277.9C32.8077 277.921 33.0784 277.946 33.4027 277.972C33.9548 279.297 34.6332 281.167 35.3804 283.746C41.9517 306.429 46.9564 358.425 47 475C47 475.003 47 475.006 47 475.01L99 475C99 474.997 99 474.994 99 474.99C99.0003 358.083 103.988 305.652 110.588 282.63C111.396 279.81 112.129 277.806 112.715 276.42C113.001 276.395 113.248 276.373 113.47 276.352C114.4 276.267 114.901 276.222 116 276.222V250.222V224.222C115.77 224.222 115.428 224.209 114.986 224.193C113.928 224.155 112.299 224.096 110.269 224.136C107.473 215.666 104.5 199.477 102.356 169.57C100.236 139.986 99.0214 98.6509 99 41C99 40.9968 99 40.9936 99 40.9904Z" fill="#E5E6E7" stroke="#E5E6E7" stroke-width="52"/>
<path d="M203 59.9895L151 60C151 60.0035 151 60.007 151 60.0105C151 112.726 149.8 150.488 147.699 177.488C145.618 204.237 142.76 218.704 140.165 226.24C137.963 226.192 136.19 226.254 135.054 226.294C134.593 226.311 134.237 226.323 134 226.323V252.323V278.323C135.27 278.323 135.843 278.369 136.793 278.444C137.139 278.472 137.536 278.503 138.036 278.538C138.475 279.566 138.997 280.944 139.573 282.758C145.92 302.751 150.956 349.516 151 456C151 456.004 151 456.007 151 456.011L203 456C203 455.996 203 455.993 203 455.989C203 349.206 208.019 302.036 214.399 281.729C215.032 279.715 215.603 278.216 216.076 277.124C216.521 277.091 216.891 277.061 217.216 277.035C218.243 276.951 218.832 276.903 220 276.903V250.903V224.903C219.74 224.903 219.367 224.891 218.895 224.876C217.722 224.839 215.934 224.782 213.73 224.839C211.197 217.375 208.398 203.136 206.343 176.973C204.235 150.142 203.021 112.554 203 60C203 59.9965 203 59.993 203 59.9895Z" fill="#E5E6E7" stroke="#E5E6E7" stroke-width="52"/>
<path d="M307 40.9904L255 41C255 41.0032 255 41.0064 255 41.0096C255 98.8381 253.799 140.364 251.686 170.131C249.54 200.37 246.546 216.784 243.708 225.407C243.679 225.497 243.649 225.586 243.62 225.673C241.583 225.641 239.963 225.707 238.945 225.748C238.522 225.765 238.202 225.778 238 225.778V251.778V277.778C239.216 277.778 239.707 277.822 240.566 277.9C240.808 277.921 241.078 277.946 241.403 277.972C241.955 279.297 242.633 281.167 243.38 283.746C249.952 306.429 254.956 358.425 255 475C255 475.003 255 475.006 255 475.01L307 475C307 474.997 307 474.994 307 474.99C307 358.083 311.988 305.652 318.588 282.63C319.396 279.81 320.129 277.806 320.715 276.42C321.001 276.395 321.248 276.373 321.47 276.352C322.4 276.267 322.901 276.222 324 276.222V250.222V224.222C323.77 224.222 323.428 224.209 322.986 224.193C321.928 224.155 320.299 224.096 318.269 224.136C315.473 215.666 312.5 199.477 310.356 169.57C308.236 139.986 307.021 98.6509 307 41C307 40.9968 307 40.9936 307 40.9904Z" fill="#E5E6E7" stroke="#E5E6E7" stroke-width="52"/>
<path d="M411 40.9904L359 41C359 41.0032 359 41.0064 359 41.0096C359 98.8381 357.799 140.364 355.686 170.131C353.54 200.37 350.546 216.784 347.708 225.407C347.679 225.497 347.649 225.586 347.62 225.673C345.583 225.641 343.963 225.707 342.945 225.748C342.522 225.765 342.202 225.778 342 225.778V251.778V277.778C343.216 277.778 343.707 277.822 344.566 277.9C344.808 277.921 345.078 277.946 345.403 277.972C345.955 279.297 346.633 281.167 347.38 283.746C353.952 306.429 358.956 358.425 359 475C359 475.003 359 475.006 359 475.01L411 475C411 474.997 411 474.994 411 474.99C411 358.083 415.988 305.652 422.588 282.63C423.396 279.81 424.129 277.806 424.715 276.42C425.001 276.395 425.248 276.373 425.47 276.352C426.4 276.267 426.901 276.222 428 276.222V250.222V224.222C427.77 224.222 427.428 224.209 426.986 224.193C425.928 224.155 424.299 224.096 422.269 224.136C419.473 215.666 416.5 199.477 414.356 169.57C412.236 139.986 411.021 98.6509 411 41C411 40.9968 411 40.9936 411 40.9904Z" fill="#E5E6E7" stroke="#E5E6E7" stroke-width="52"/>
<path d="M246.604 52.51V60.112H245.12V49.78H246.73L250.328 56.094L253.912 49.78H255.536V60.112H254.052V52.51L250.972 57.956H249.67L246.604 52.51ZM262.168 58.922C262.887 58.922 263.521 58.7587 264.072 58.432C264.632 58.096 265.061 57.6293 265.36 57.032C265.668 56.4253 265.822 55.73 265.822 54.946C265.822 54.162 265.668 53.4713 265.36 52.874C265.061 52.2673 264.632 51.8007 264.072 51.474C263.521 51.138 262.887 50.97 262.168 50.97C261.449 50.97 260.815 51.138 260.264 51.474C259.713 51.8007 259.284 52.2673 258.976 52.874C258.677 53.4713 258.528 54.162 258.528 54.946C258.528 55.73 258.677 56.4253 258.976 57.032C259.284 57.6293 259.713 58.096 260.264 58.432C260.815 58.7587 261.449 58.922 262.168 58.922ZM262.168 49.668C263.167 49.668 264.053 49.892 264.828 50.34C265.612 50.788 266.223 51.4133 266.662 52.216C267.101 53.0187 267.32 53.9287 267.32 54.946C267.32 55.9633 267.101 56.8733 266.662 57.676C266.223 58.4787 265.612 59.104 264.828 59.552C264.053 60 263.167 60.224 262.168 60.224C261.179 60.224 260.292 60 259.508 59.552C258.733 59.104 258.127 58.4787 257.688 57.676C257.249 56.8733 257.03 55.9633 257.03 54.946C257.03 53.9287 257.249 53.0187 257.688 52.216C258.127 51.4133 258.733 50.788 259.508 50.34C260.292 49.892 261.179 49.668 262.168 49.668ZM272.979 60.112H271.243L267.421 49.78H269.003L272.097 58.11L274.995 49.78H276.577L272.979 60.112ZM279.374 49.78V60.112H277.89V49.78H279.374ZM287.726 51.082H282.532V54.148H286.998V55.436H282.532V58.81H287.726V60.112H281.048V49.78H287.726V51.082ZM293.549 58.81H298.225V60.112H292.065V49.78H293.549V58.81ZM303.699 58.922C304.418 58.922 305.052 58.7587 305.603 58.432C306.163 58.096 306.592 57.6293 306.891 57.032C307.199 56.4253 307.353 55.73 307.353 54.946C307.353 54.162 307.199 53.4713 306.891 52.874C306.592 52.2673 306.163 51.8007 305.603 51.474C305.052 51.138 304.418 50.97 303.699 50.97C302.98 50.97 302.346 51.138 301.795 51.474C301.244 51.8007 300.815 52.2673 300.507 52.874C300.208 53.4713 300.059 54.162 300.059 54.946C300.059 55.73 300.208 56.4253 300.507 57.032C300.815 57.6293 301.244 58.096 301.795 58.432C302.346 58.7587 302.98 58.922 303.699 58.922ZM303.699 49.668C304.698 49.668 305.584 49.892 306.359 50.34C307.143 50.788 307.754 51.4133 308.193 52.216C308.632 53.0187 308.851 53.9287 308.851 54.946C308.851 55.9633 308.632 56.8733 308.193 57.676C307.754 58.4787 307.143 59.104 306.359 59.552C305.584 60 304.698 60.224 303.699 60.224C302.71 60.224 301.823 60 301.039 59.552C300.264 59.104 299.658 58.4787 299.219 57.676C298.78 56.8733 298.561 55.9633 298.561 54.946C298.561 53.9287 298.78 53.0187 299.219 52.216C299.658 51.4133 300.264 50.788 301.039 50.34C301.823 49.892 302.71 49.668 303.699 49.668ZM319.771 55.59C319.771 56.542 319.566 57.3633 319.155 58.054C318.754 58.7447 318.189 59.2767 317.461 59.65C316.733 60.014 315.889 60.2053 314.927 60.224C313.938 60.224 313.051 60 312.267 59.552C311.493 59.104 310.886 58.4787 310.447 57.676C310.009 56.8733 309.789 55.9633 309.789 54.946C309.789 53.9287 310.009 53.0233 310.447 52.23C310.886 51.4273 311.493 50.802 312.267 50.354C313.051 49.906 313.938 49.682 314.927 49.682C315.982 49.682 316.883 49.9247 317.629 50.41C318.376 50.8953 318.931 51.4833 319.295 52.174L318.021 52.832C317.76 52.3187 317.363 51.8847 316.831 51.53C316.309 51.166 315.674 50.984 314.927 50.984C314.209 50.984 313.569 51.152 313.009 51.488C312.459 51.8147 312.029 52.2767 311.721 52.874C311.423 53.4713 311.273 54.162 311.273 54.946C311.273 55.73 311.423 56.4253 311.721 57.032C312.029 57.6293 312.459 58.096 313.009 58.432C313.569 58.7587 314.209 58.922 314.927 58.922C315.571 58.9033 316.145 58.7867 316.649 58.572C317.163 58.348 317.569 58.0167 317.867 57.578C318.166 57.13 318.315 56.5793 318.315 55.926H315.095V54.694H319.785L319.771 55.59ZM322.153 58.586C322.405 58.586 322.61 58.67 322.769 58.838C322.927 58.9967 323.007 59.202 323.007 59.454C323.007 59.7153 322.927 59.9253 322.769 60.084C322.61 60.252 322.405 60.336 322.153 60.336C321.891 60.336 321.677 60.252 321.509 60.084C321.35 59.9253 321.271 59.7153 321.271 59.454C321.271 59.202 321.35 58.9967 321.509 58.838C321.677 58.67 321.891 58.586 322.153 58.586Z" fill="#4C4D55"/>
</g>
<defs>
<clipPath id="clip0_70_1149">
<rect width="353" height="515" rx="28" fill="white"/>
</clipPath>
</defs>
</svg>
