<svg width="353" height="515" viewBox="0 0 353 515" fill="none" xmlns="http://www.w3.org/2000/svg">
<g clip-path="url(#clip0_183_7860)">
<rect width="353" height="515" rx="28" fill="#E5E6E7"/>
<path d="M246.604 52.51V60.112H245.12V49.78H246.73L250.328 56.094L253.912 49.78H255.536V60.112H254.052V52.51L250.972 57.956H249.67L246.604 52.51ZM262.168 58.922C262.887 58.922 263.521 58.7587 264.072 58.432C264.632 58.096 265.061 57.6293 265.36 57.032C265.668 56.4253 265.822 55.73 265.822 54.946C265.822 54.162 265.668 53.4713 265.36 52.874C265.061 52.2673 264.632 51.8007 264.072 51.474C263.521 51.138 262.887 50.97 262.168 50.97C261.449 50.97 260.815 51.138 260.264 51.474C259.713 51.8007 259.284 52.2673 258.976 52.874C258.677 53.4713 258.528 54.162 258.528 54.946C258.528 55.73 258.677 56.4253 258.976 57.032C259.284 57.6293 259.713 58.096 260.264 58.432C260.815 58.7587 261.449 58.922 262.168 58.922ZM262.168 49.668C263.167 49.668 264.053 49.892 264.828 50.34C265.612 50.788 266.223 51.4133 266.662 52.216C267.101 53.0187 267.32 53.9287 267.32 54.946C267.32 55.9633 267.101 56.8733 266.662 57.676C266.223 58.4787 265.612 59.104 264.828 59.552C264.053 60 263.167 60.224 262.168 60.224C261.179 60.224 260.292 60 259.508 59.552C258.733 59.104 258.127 58.4787 257.688 57.676C257.249 56.8733 257.03 55.9633 257.03 54.946C257.03 53.9287 257.249 53.0187 257.688 52.216C258.127 51.4133 258.733 50.788 259.508 50.34C260.292 49.892 261.179 49.668 262.168 49.668ZM272.979 60.112H271.243L267.421 49.78H269.003L272.097 58.11L274.995 49.78H276.577L272.979 60.112ZM279.374 49.78V60.112H277.89V49.78H279.374ZM287.726 51.082H282.532V54.148H286.998V55.436H282.532V58.81H287.726V60.112H281.048V49.78H287.726V51.082ZM293.549 58.81H298.225V60.112H292.065V49.78H293.549V58.81ZM303.699 58.922C304.418 58.922 305.052 58.7587 305.603 58.432C306.163 58.096 306.592 57.6293 306.891 57.032C307.199 56.4253 307.353 55.73 307.353 54.946C307.353 54.162 307.199 53.4713 306.891 52.874C306.592 52.2673 306.163 51.8007 305.603 51.474C305.052 51.138 304.418 50.97 303.699 50.97C302.98 50.97 302.346 51.138 301.795 51.474C301.244 51.8007 300.815 52.2673 300.507 52.874C300.208 53.4713 300.059 54.162 300.059 54.946C300.059 55.73 300.208 56.4253 300.507 57.032C300.815 57.6293 301.244 58.096 301.795 58.432C302.346 58.7587 302.98 58.922 303.699 58.922ZM303.699 49.668C304.698 49.668 305.584 49.892 306.359 50.34C307.143 50.788 307.754 51.4133 308.193 52.216C308.632 53.0187 308.851 53.9287 308.851 54.946C308.851 55.9633 308.632 56.8733 308.193 57.676C307.754 58.4787 307.143 59.104 306.359 59.552C305.584 60 304.698 60.224 303.699 60.224C302.71 60.224 301.823 60 301.039 59.552C300.264 59.104 299.658 58.4787 299.219 57.676C298.78 56.8733 298.561 55.9633 298.561 54.946C298.561 53.9287 298.78 53.0187 299.219 52.216C299.658 51.4133 300.264 50.788 301.039 50.34C301.823 49.892 302.71 49.668 303.699 49.668ZM319.771 55.59C319.771 56.542 319.566 57.3633 319.155 58.054C318.754 58.7447 318.189 59.2767 317.461 59.65C316.733 60.014 315.889 60.2053 314.927 60.224C313.938 60.224 313.051 60 312.267 59.552C311.493 59.104 310.886 58.4787 310.447 57.676C310.009 56.8733 309.789 55.9633 309.789 54.946C309.789 53.9287 310.009 53.0233 310.447 52.23C310.886 51.4273 311.493 50.802 312.267 50.354C313.051 49.906 313.938 49.682 314.927 49.682C315.982 49.682 316.883 49.9247 317.629 50.41C318.376 50.8953 318.931 51.4833 319.295 52.174L318.021 52.832C317.76 52.3187 317.363 51.8847 316.831 51.53C316.309 51.166 315.674 50.984 314.927 50.984C314.209 50.984 313.569 51.152 313.009 51.488C312.459 51.8147 312.029 52.2767 311.721 52.874C311.423 53.4713 311.273 54.162 311.273 54.946C311.273 55.73 311.423 56.4253 311.721 57.032C312.029 57.6293 312.459 58.096 313.009 58.432C313.569 58.7587 314.209 58.922 314.927 58.922C315.571 58.9033 316.145 58.7867 316.649 58.572C317.163 58.348 317.569 58.0167 317.867 57.578C318.166 57.13 318.315 56.5793 318.315 55.926H315.095V54.694H319.785L319.771 55.59ZM322.153 58.586C322.405 58.586 322.61 58.67 322.769 58.838C322.927 58.9967 323.007 59.202 323.007 59.454C323.007 59.7153 322.927 59.9253 322.769 60.084C322.61 60.252 322.405 60.336 322.153 60.336C321.891 60.336 321.677 60.252 321.509 60.084C321.35 59.9253 321.271 59.7153 321.271 59.454C321.271 59.202 321.35 58.9967 321.509 58.838C321.677 58.67 321.891 58.586 322.153 58.586Z" fill="#4C4D55"/>
<path d="M113.256 1.21229C155.256 6.4124 170.423 42.0456 172.756 59.2123H124.756V39.7123H23.2563C33.7563 23.7123 51.7563 -6.40215 113.256 1.21229Z" fill="#4C4D55"/>
<path d="M240.256 1.21229C198.256 6.4124 183.09 42.0456 180.756 59.2123H228.756V39.7123H330.256C319.756 23.7123 301.756 -6.40215 240.256 1.21229Z" fill="#4C4D55"/>
<path d="M29.7564 220.734V252.234C3.7564 221.834 13.6123 213.734 22.2564 214.234C23.61 214.312 27.6122 215.234 29.7564 220.734Z" fill="#4C4D55"/>
<path d="M29.7564 294.734V263.234C3.7564 293.634 13.6123 301.734 22.2564 301.234C23.61 301.156 27.6122 300.234 29.7564 294.734Z" fill="#4C4D55"/>
<rect x="116.756" y="214.212" width="16" height="87" rx="8" fill="#4C4D55"/>
<rect x="220.756" y="214.212" width="16" height="87" rx="8" fill="#4C4D55"/>
<path d="M323.756 220.734V252.234C349.756 221.834 339.9 213.734 331.256 214.234C329.903 214.312 325.9 215.234 323.756 220.734Z" fill="#4C4D55"/>
<path d="M323.756 294.734V263.234C349.756 293.634 339.9 301.734 331.256 301.234C329.903 301.156 325.9 300.234 323.756 294.734Z" fill="#4C4D55"/>
<path d="M113.256 514.255C155.256 509.055 170.423 473.422 172.756 456.255H124.756V475.755H23.2563C33.7563 491.755 51.7563 521.87 113.256 514.255Z" fill="#4C4D55"/>
<path d="M240.256 514.255C198.256 509.055 183.09 473.422 180.756 456.255H228.756V475.755H330.256C319.756 491.755 301.756 521.87 240.256 514.255Z" fill="#4C4D55"/>
</g>
<defs>
<clipPath id="clip0_183_7860">
<rect width="353" height="515" rx="28" fill="white"/>
</clipPath>
</defs>
</svg>
